Coordinates
version=1
nRows=5
nColumns=46
inDegrees=yes

Units are S.I. units (second, meters, Newtons, ...)
Angles are in degrees.

endheader
time	pelvis_tilt	pelvis_list	pelvis_rotation	pelvis_tx	pelvis_ty	pelvis_tz	bb_angle	bb_tx	bb_ty	bb_tz	hip_flexion_r	hip_adduction_r	hip_rotation_r	knee_angle_r	knee_angle_r_beta	ankle_angle_r	subtalar_angle_r	mtp_angle_r	crank_angle_r	hip_flexion_l	hip_adduction_l	hip_rotation_l	knee_angle_l	knee_angle_l_beta	ankle_angle_l	subtalar_angle_l	mtp_angle_l	crank_angle_l	lumbar_extension	lumbar_bending	lumbar_rotation	arm_flex_r	arm_add_r	arm_rot_r	elbow_flex_r	pro_sup_r	wrist_flex_r	wrist_dev_r	arm_flex_l	arm_add_l	arm_rot_l	elbow_flex_l	pro_sup_l	wrist_flex_l	wrist_dev_l
      0.00500000	    -26.32613649	     -5.72835814	     -6.76729202	      0.09710647	      1.11204766	     -0.21950017	      0.00000000	      0.50000000	      0.00000000	      0.25000000	     87.84353178	      6.60543734	      0.85885303	     81.50656525	      1.42255793	     28.93742335	    -10.71450836	      0.00000000	      0.00000000	     30.95922073	    -12.49722732	     -4.41835953	     13.12164980	      0.22901599	     22.83520972	      6.89809749	      0.00000000	      0.00000000	    -43.99233853	      3.26585988	      7.77478402	     89.60722384	     -5.16620120	     42.33009336	     36.49455224	     27.18732235	      0.00000000	      0.00000000	     89.55437465	    -11.59836951	     38.78486293	     32.33393489	     26.85531897	      0.00000000	      0.00000000
      0.01000000	    -26.36599989	     -5.62490475	     -6.77499310	      0.09700503	      1.11198033	     -0.21969701	      0.00000000	      0.50000000	      0.00000000	      0.25000000	     87.90167494	      6.59383352	      0.98624211	     81.52877950	      1.42294564	     28.95985206	    -10.62194745	      0.00000000	      0.00000000	     30.95212579	    -12.34796051	     -4.24203606	     13.00266430	      0.22693930	     22.70565443	      6.49298658	      0.00000000	      0.00000000	    -43.91928027	      3.16325785	      7.73607230	     89.59696462	     -5.25329001	     42.16058558	     36.33830110	     28.45067630	      0.00000000	      0.00000000	     89.56049148	    -11.39757073	     38.59435098	     31.94320742	     28.07998637	      0.00000000	      0.00000000
      0.01500000	    -26.39348503	     -5.71868874	     -6.80180325	      0.09698843	      1.11195986	     -0.21972618	      0.00000000	      0.50000000	      0.00000000	      0.25000000	     87.89258526	      6.67928273	      0.93944794	     81.47268624	      1.42196663	     28.94518247	    -10.79226545	      0.00000000	      0.00000000	     31.01475554	    -12.45380496	     -4.17909670	     13.08370963	      0.22835381	     22.75640805	      6.50661647	      0.00000000	      0.00000000	    -43.90019412	      3.22987945	      7.96636768	     89.59833161	     -5.70866279	     42.57168950	     36.27819825	     30.61461695	      0.00000000	      0.00000000	     89.57370876	    -11.35135551	     39.05364926	     31.50309961	     30.00465106	      0.00000000	      0.00000000
      0.02000000	    -25.92806693	     -5.12866794	     -6.64887786	      0.09791587	      1.11301790	     -0.22174712	      0.00000000	      0.50000000	      0.00000000	      0.25000000	     87.42217817	      6.16345447	      1.39549679	     81.62628399	      1.42464741	     28.99913806	    -10.64068728	      0.00000000	      0.00000000	     30.72152748	    -11.75797740	     -4.74823947	     13.60845463	      0.23751234	     22.94263341	      6.31422857	      0.00000000	      0.00000000	    -44.34672062	      2.84689099	      7.53988092	     89.60435055	     -5.88742359	     42.53184510	     36.29863906	     30.60035905	      0.00000000	      0.00000000	     89.56803533	    -11.30103937	     39.25492060	     31.68305993	     30.03669158	      0.00000000	      0.00000000
      0.02500000	    -25.83660421	     -4.91812031	     -6.52052132	      0.09757443	      1.11340909	     -0.22284533	      0.00000000	      0.50000000	      0.00000000	      0.25000000	     87.29385358	      6.09722410	      1.81997151	     81.60365695	      1.42425250	     29.04651582	    -10.72800142	      0.00000000	      0.00000000	     30.89649553	    -11.55370213	     -5.08008194	     14.17370566	      0.24737783	     23.48048575	      6.13395874	      0.00000000	      0.00000000	    -44.44432450	      2.75936838	      7.31672953	     89.60033474	     -5.96690302	     42.44445638	     36.35216574	     30.58955556	      0.00000000	      0.00000000	     89.56606140	    -11.31107431	     39.50031354	     31.95887307	     30.08869424	      0.00000000	      0.00000000
